HIERARCHY
ROOT Hips
{
	OFFSET 0.000000 0.000000 0.000000
	CHANNELS 6 Xposition Yposition Zposition Zrotation Yrotation Xrotation 
	JOINT Spine1
	{
		OFFSET -0.013727 5.003763 -0.053727
		CHANNELS 3 Zrotation Yrotation Xrotation
		JOINT Spine2
		{
			OFFSET -0.000000 7.125302 -0.029825
			CHANNELS 3 Zrotation Yrotation Xrotation
			JOINT Chest
			{
				OFFSET -0.000001 7.550064 -0.815971
				CHANNELS 3 Zrotation Yrotation Xrotation
				JOINT Neck1
				{
					OFFSET -0.181676 26.311296 -0.553349
					CHANNELS 3 Zrotation Yrotation Xrotation
					JOINT Neck2
					{
						OFFSET -0.000003 7.709400 2.302585
						CHANNELS 3 Zrotation Yrotation Xrotation
						JOINT Head
						{
							OFFSET -0.000005 6.128912 1.953709
							CHANNELS 3 Zrotation Yrotation Xrotation
							JOINT HeadEnd
							{
								OFFSET 0.003598 16.065401 -1.835379
								CHANNELS 3 Zrotation Yrotation Xrotation
								End Site
								{
									OFFSET 0.000000 0.000000 0.000000
								}
							}
							JOINT Jaw
							{
								OFFSET 0.002637 0.475592 3.094941
								CHANNELS 3 Zrotation Yrotation Xrotation
								End Site
								{
									OFFSET 0.000000 0.000000 0.000000
								}
							}
							JOINT LeftEye
							{
								OFFSET 3.206381 5.380206 7.586883
								CHANNELS 3 Zrotation Yrotation Xrotation
								End Site
								{
									OFFSET 0.000000 0.000000 0.000000
								}
							}
							JOINT RightEye
							{
								OFFSET -3.222440 5.361866 7.558233
								CHANNELS 3 Zrotation Yrotation Xrotation
								End Site
								{
									OFFSET 0.000000 0.000000 0.000000
								}
							}
						}
					}
				}
				JOINT LeftShoulder
				{
					OFFSET 1.621652 23.237164 5.113413
					CHANNELS 3 Zrotation Yrotation Xrotation
					JOINT LeftArm
					{
						OFFSET 14.919845 -0.000000 -5.502326
						CHANNELS 3 Zrotation Yrotation Xrotation
						JOINT LeftForeArm
						{
							OFFSET 28.739309 0.000003 -0.002588
							CHANNELS 3 Zrotation Yrotation Xrotation
							JOINT LeftHand
							{
								OFFSET 27.093979 -0.000003 0.002609
								CHANNELS 3 Zrotation Yrotation Xrotation
								JOINT LeftHandThumb1
								{
									OFFSET 2.276480 -1.392046 3.191413
									CHANNELS 3 Zrotation Yrotation Xrotation
									JOINT LeftHandThumb2
									{
										OFFSET 4.012842 -1.828125 1.641655
										CHANNELS 3 Zrotation Yrotation Xrotation
										JOINT LeftHandThumb3
										{
											OFFSET 2.798516 0.000000 -0.000004
											CHANNELS 3 Zrotation Yrotation Xrotation
											JOINT LeftHandThumbEnd
											{
												OFFSET 3.180791 -0.000001 0.000003
												CHANNELS 3 Zrotation Yrotation Xrotation
												End Site
												{
													OFFSET 0.000000 0.000000 0.000000
												}
											}
										}
									}
								}
								JOINT LeftHandIndex1
								{
									OFFSET 3.247554 -0.531998 2.296170
									CHANNELS 3 Zrotation Yrotation Xrotation
									JOINT LeftHandIndex2
									{
										OFFSET 6.364580 0.012062 0.178600
										CHANNELS 3 Zrotation Yrotation Xrotation
										JOINT LeftHandIndex3
										{
											OFFSET 3.662367 0.000001 0.000000
											CHANNELS 3 Zrotation Yrotation Xrotation
											JOINT LeftHandIndex4
											{
												OFFSET 2.329242 0.000000 0.000002
												CHANNELS 3 Zrotation Yrotation Xrotation
												JOINT LeftHandIndexEnd
												{
													OFFSET 2.759619 -0.180540 -0.113024
													CHANNELS 3 Zrotation Yrotation Xrotation
													End Site
													{
														OFFSET 0.000000 0.000000 0.000000
													}
												}
											}
										}
									}
								}
								JOINT LeftHandMiddle1
								{
									OFFSET 3.163499 0.240982 1.000333
									CHANNELS 3 Zrotation Yrotation Xrotation
									JOINT LeftHandMiddle2
									{
										OFFSET 6.190778 -0.259276 -1.002548
										CHANNELS 3 Zrotation Yrotation Xrotation
										JOINT LeftHandMiddle3
										{
											OFFSET 4.356523 -0.000006 0.000000
											CHANNELS 3 Zrotation Yrotation Xrotation
											JOINT LeftHandMiddle4
											{
												OFFSET 2.996875 -0.000007 0.000000
												CHANNELS 3 Zrotation Yrotation Xrotation
												JOINT LeftHandMiddleEnd
												{
													OFFSET 2.304294 -0.294571 -0.031739
													CHANNELS 3 Zrotation Yrotation Xrotation
													End Site
													{
														OFFSET 0.000000 0.000000 0.000000
													}
												}
											}
										}
									}
								}
								JOINT LeftHandRing1
								{
									OFFSET 2.882642 -0.053650 -0.322543
									CHANNELS 3 Zrotation Yrotation Xrotation
									JOINT LeftHandRing2
									{
										OFFSET 5.854543 -0.486203 -1.373841
										CHANNELS 3 Zrotation Yrotation Xrotation
										JOINT LeftHandRing3
										{
											OFFSET 4.350581 0.000000 0.000004
											CHANNELS 3 Zrotation Yrotation Xrotation
											JOINT LeftHandRing4
											{
												OFFSET 2.651325 0.000006 0.000003
												CHANNELS 3 Zrotation Yrotation Xrotation
												JOINT LeftHandRingEnd
												{
													OFFSET 1.936111 0.077684 -0.000070
													CHANNELS 3 Zrotation Yrotation Xrotation
													End Site
													{
														OFFSET 0.000000 0.000000 0.000000
													}
												}
											}
										}
									}
								}
								JOINT LeftHandPinky1
								{
									OFFSET 2.865500 -0.310004 -1.600377
									CHANNELS 3 Zrotation Yrotation Xrotation
									JOINT LeftHandPinky2
									{
										OFFSET 5.087853 -1.331142 -1.771231
										CHANNELS 3 Zrotation Yrotation Xrotation
										JOINT LeftHandPinky3
										{
											OFFSET 3.070975 0.000003 -0.000000
											CHANNELS 3 Zrotation Yrotation Xrotation
											JOINT LeftHandPinky4
											{
												OFFSET 1.549667 -0.000000 0.000000
												CHANNELS 3 Zrotation Yrotation Xrotation
												JOINT LeftHandPinkyEnd
												{
													OFFSET 1.944895 -0.157801 0.057220
													CHANNELS 3 Zrotation Yrotation Xrotation
													End Site
													{
														OFFSET 0.000000 0.000000 0.000000
													}
												}
											}
										}
									}
								}
							}
						}
					}
				}
				JOINT RightShoulder
				{
					OFFSET -1.380118 23.180309 5.214158
					CHANNELS 3 Zrotation Yrotation Xrotation
					JOINT RightArm
					{
						OFFSET -15.037197 0.000012 -5.545604
						CHANNELS 3 Zrotation Yrotation Xrotation
						JOINT RightForeArm
						{
							OFFSET -28.736639 0.000002 -0.002597
							CHANNELS 3 Zrotation Yrotation Xrotation
							JOINT RightHand
							{
								OFFSET -27.133619 0.000000 0.002612
								CHANNELS 3 Zrotation Yrotation Xrotation
								JOINT RightHandThumb1
								{
									OFFSET -2.274037 -1.383990 3.163128
									CHANNELS 3 Zrotation Yrotation Xrotation
									JOINT RightHandThumb2
									{
										OFFSET -4.011429 -1.827467 1.640915
										CHANNELS 3 Zrotation Yrotation Xrotation
										JOINT RightHandThumb3
										{
											OFFSET -2.794934 -0.000003 -0.000003
											CHANNELS 3 Zrotation Yrotation Xrotation
											JOINT RightHandThumbEnd
											{
												OFFSET -3.183855 0.000003 -0.000001
												CHANNELS 3 Zrotation Yrotation Xrotation
												End Site
												{
													OFFSET 0.000000 0.000000 0.000000
												}
											}
										}
									}
								}
								JOINT RightHandIndex1
								{
									OFFSET -3.253270 -0.520059 2.282866
									CHANNELS 3 Zrotation Yrotation Xrotation
									JOINT RightHandIndex2
									{
										OFFSET -6.341918 0.012473 0.178265
										CHANNELS 3 Zrotation Yrotation Xrotation
										JOINT RightHandIndex3
										{
											OFFSET -3.654875 -0.000009 -0.000001
											CHANNELS 3 Zrotation Yrotation Xrotation
											JOINT RightHandIndex4
											{
												OFFSET -2.327587 0.000000 0.000000
												CHANNELS 3 Zrotation Yrotation Xrotation
												JOINT RightHandIndexEnd
												{
													OFFSET -2.761789 -0.180657 -0.113078
													CHANNELS 3 Zrotation Yrotation Xrotation
													End Site
													{
														OFFSET 0.000000 0.000000 0.000000
													}
												}
											}
										}
									}
								}
								JOINT RightHandMiddle1
								{
									OFFSET -3.168107 0.246593 1.001031
									CHANNELS 3 Zrotation Yrotation Xrotation
									JOINT RightHandMiddle2
									{
										OFFSET -6.180830 -0.258836 -1.000896
										CHANNELS 3 Zrotation Yrotation Xrotation
										JOINT RightHandMiddle3
										{
											OFFSET -4.348905 -0.000001 -0.000001
											CHANNELS 3 Zrotation Yrotation Xrotation
											JOINT RightHandMiddle4
											{
												OFFSET -3.000243 -0.000003 -0.000003
												CHANNELS 3 Zrotation Yrotation Xrotation
												JOINT RightHandMiddleEnd
												{
													OFFSET -2.302518 -0.294370 -0.031705
													CHANNELS 3 Zrotation Yrotation Xrotation
													End Site
													{
														OFFSET 0.000000 0.000000 0.000000
													}
												}
											}
										}
									}
								}
								JOINT RightHandRing1
								{
									OFFSET -2.885694 -0.067952 -0.308858
									CHANNELS 3 Zrotation Yrotation Xrotation
									JOINT RightHandRing2
									{
										OFFSET -5.854196 -0.486133 -1.373732
										CHANNELS 3 Zrotation Yrotation Xrotation
										JOINT RightHandRing3
										{
											OFFSET -4.338814 -0.000003 -0.000000
											CHANNELS 3 Zrotation Yrotation Xrotation
											JOINT RightHandRing4
											{
												OFFSET -2.654906 -0.000004 0.000004
												CHANNELS 3 Zrotation Yrotation Xrotation
												JOINT RightHandRingEnd
												{
													OFFSET -1.933570 0.077524 -0.000053
													CHANNELS 3 Zrotation Yrotation Xrotation
													End Site
													{
														OFFSET 0.000000 0.000000 0.000000
													}
												}
											}
										}
									}
								}
								JOINT RightHandPinky1
								{
									OFFSET -2.866429 -0.342798 -1.584145
									CHANNELS 3 Zrotation Yrotation Xrotation
									JOINT RightHandPinky2
									{
										OFFSET -5.091370 -1.332054 -1.772385
										CHANNELS 3 Zrotation Yrotation Xrotation
										JOINT RightHandPinky3
										{
											OFFSET -3.062666 -0.000006 -0.000000
											CHANNELS 3 Zrotation Yrotation Xrotation
											JOINT RightHandPinky4
											{
												OFFSET -1.546527 0.000006 -0.000003
												CHANNELS 3 Zrotation Yrotation Xrotation
												JOINT RightHandPinkyEnd
												{
													OFFSET -1.945122 -0.157721 0.057211
													CHANNELS 3 Zrotation Yrotation Xrotation
													End Site
													{
														OFFSET 0.000000 0.000000 0.000000
													}
												}
											}
										}
									}
								}
							}
						}
					}
				}
			}
		}
	}
	JOINT LeftLeg
	{
		OFFSET 10.043214 -8.434526 2.595655
		CHANNELS 3 Zrotation Yrotation Xrotation
		JOINT LeftShin
		{
			OFFSET -0.000002 -43.221752 -0.802913
			CHANNELS 3 Zrotation Yrotation Xrotation
			JOINT LeftFoot
			{
				OFFSET 0.000001 -42.155094 -3.481522
				CHANNELS 3 Zrotation Yrotation Xrotation
				JOINT LeftToeBase
				{
					OFFSET 0.000000 -5.059474 13.231529
					CHANNELS 3 Zrotation Yrotation Xrotation
					JOINT LeftToeEnd
					{
						OFFSET -0.009607 -1.647616 6.513017
						CHANNELS 3 Zrotation Yrotation Xrotation
						End Site
						{
							OFFSET 0.000000 0.000000 0.000000
						}
					}
				}
			}
		}
	}
	JOINT RightLeg
	{
		OFFSET -10.047277 -8.295259 2.620317
		CHANNELS 3 Zrotation Yrotation Xrotation
		JOINT RightShin
		{
			OFFSET 0.000001 -43.362209 -0.805555
			CHANNELS 3 Zrotation Yrotation Xrotation
			JOINT RightFoot
			{
				OFFSET 0.000002 -42.117393 -3.478398
				CHANNELS 3 Zrotation Yrotation Xrotation
				JOINT RightToeBase
				{
					OFFSET -0.000001 -5.079609 13.284196
					CHANNELS 3 Zrotation Yrotation Xrotation
					JOINT RightToeEnd
					{
						OFFSET 0.009532 -1.634384 6.460591
						CHANNELS 3 Zrotation Yrotation Xrotation
						End Site
						{
							OFFSET 0.000000 0.000000 0.000000
						}
					}
				}
			}
		}
	}
}
MOTION
Frames: 4
Frame Time: 0.033333
-0.015350 96.296371 -4.852424 -0.797140 10.980014 0.621173 0.160110 -0.448510 5.195744 -0.300133 -1.124749 -3.026298 -0.966302 -3.790846 9.218603 0.798043 1.945124 2.784405 -3.053952 -9.102266 -3.128354 1.551542 -13.034125 -10.236265 0.000077 -0.000023 0.000006 -0.007623 -0.012565 -0.038368 0.678679 -3.789757 -10.650430 -0.709448 3.756242 -10.702596 3.400820 -12.616879 8.589813 -55.063217 -63.054474 10.104678 -177.314453 -61.062374 178.825714 0.442610 5.415355 -17.489763 -5.882100 9.861277 0.702589 -10.936860 -0.360577 7.156198 0.000002 8.774815 -0.000002 -16.117104 18.563595 6.175062 -1.844031 2.498502 -2.507274 -10.163591 4.678941 4.621104 -20.975994 -0.000004 -0.000000 -21.226254 2.451693 -3.593991 0.000001 -0.000006 -0.000001 -1.362680 2.240797 -0.746322 -21.334890 0.584905 3.008321 -13.821197 -0.000003 0.000002 -23.887131 -0.249079 -0.839480 -61.617714 2.324875 -1.453766 -0.294026 1.679686 0.833254 -14.218192 0.093214 1.300579 -34.212002 -0.287564 0.967172 -20.033178 0.964534 1.212844 0.000001 0.000001 0.000002 -3.440385 0.788233 0.501654 -15.928171 -3.167309 2.999704 -6.338817 -0.000003 0.000001 -18.123415 3.648174 -4.905659 -0.000004 0.000001 -0.000003 -2.163255 15.348589 7.221851 26.253698 30.113817 -44.237850 -179.091354 60.285103 -179.397720 0.010252 1.721854 -17.267744 2.243540 -5.255033 -3.180156 14.282875 -0.826591 6.952497 0.000000 -12.690591 -0.000001 16.185369 -17.276569 2.539967 1.665666 -1.955919 -2.878296 4.727794 -4.170584 4.993918 11.020511 0.000004 -0.000000 12.109030 -3.735709 -2.866781 0.000000 0.000001 0.000001 1.291985 -1.928550 -1.498088 14.800111 0.567469 3.865602 14.242553 -1.341735 -6.660649 19.631939 0.143926 -0.648242 49.763908 -0.774135 -6.178333 0.353028 -1.511147 -0.031940 20.222767 3.684307 2.316628 18.787245 0.000005 -0.000000 10.751610 -0.479867 1.397905 0.000000 -0.000000 -0.000000 3.273805 0.305946 -0.580111 21.486790 11.830362 2.266130 8.162916 0.000002 0.000001 18.399054 -3.798979 -4.940567 0.000003 0.000000 -0.000001 9.285500 5.357118 -16.810261 -0.134916 -0.190611 31.355246 -9.045334 -6.484046 -14.341136 1.606366 -1.838379 -0.392404 -0.000000 0.000000 0.000002 -5.367756 -24.156357 -24.201265 0.020557 0.061078 25.847052 7.015781 -10.698054 -0.051898 -1.421500 0.997476 -0.250689 0.000000 -0.000001 -0.000001 
0.155278 96.339523 -4.862066 -0.871557 10.904485 0.647731 0.118127 -0.454285 5.157027 -0.321133 -1.100425 -3.042606 -1.016353 -3.776642 9.198926 0.958160 1.882725 2.744614 -3.090530 -9.124313 -3.126206 1.624958 -13.103830 -10.208147 0.000077 -0.000023 0.000006 -0.005656 -0.012573 -0.039028 0.684600 -3.780536 -10.648223 -0.703851 3.759148 -10.703066 3.382205 -12.609489 8.612884 -54.926762 -63.006088 9.990275 -177.159470 -61.253510 178.684937 0.609239 5.484249 -17.771835 -5.882100 9.861279 0.702590 -10.936858 -0.360577 7.156196 0.000000 8.774814 -0.000003 -16.009172 18.527105 6.201021 -1.844030 2.498503 -2.507276 -10.163589 4.678938 4.621103 -20.975996 -0.000005 0.000002 -21.226254 2.451692 -3.593992 0.000001 -0.000006 -0.000000 -1.362680 2.240796 -0.746323 -21.334894 0.584908 3.008321 -13.821194 -0.000003 0.000003 -23.887131 -0.249080 -0.839479 -61.523685 2.316507 -1.457155 -0.294024 1.679686 0.833253 -14.218194 0.093214 1.300578 -34.212006 -0.287564 0.967172 -20.033178 0.964533 1.212842 0.000001 0.000001 0.000000 -3.440385 0.788233 0.501653 -15.928165 -3.167308 2.999703 -6.338818 -0.000002 0.000002 -18.123413 3.648173 -4.905661 -0.000005 0.000000 -0.000003 -2.094169 15.446820 7.223234 26.281467 30.164040 -44.408146 -179.223892 60.224861 -179.481659 -0.087067 1.886294 -16.986023 2.243540 -5.255033 -3.180156 14.282873 -0.826592 6.952495 -0.000002 -12.690591 0.000001 16.147633 -17.254883 2.536298 1.665662 -1.955921 -2.878297 4.727793 -4.170582 4.993918 11.020510 0.000004 -0.000001 12.109033 -3.735708 -2.866779 0.000001 0.000001 0.000000 1.291983 -1.928548 -1.498088 14.800117 0.567468 3.865604 14.242550 -1.341734 -6.660649 19.631939 0.143927 -0.648245 49.683270 -0.791508 -6.171995 0.353029 -1.511147 -0.031940 20.222765 3.684307 2.316627 18.787245 0.000006 -0.000000 10.751610 -0.479867 1.397902 0.000000 0.000000 0.000000 3.273804 0.305947 -0.580110 21.486790 11.830365 2.266132 8.162919 0.000002 -0.000000 18.399052 -3.798979 -4.940566 0.000003 0.000000 0.000000 9.289934 5.231636 -16.810707 -0.125201 -0.175598 31.322874 -8.983981 -6.474883 -14.330832 1.605427 -1.845549 -0.373550 -0.000000 0.000001 0.000002 -5.327615 -24.233871 -24.060759 0.028767 0.062219 25.429653 7.097191 -10.602746 0.183098 -1.420721 1.003423 -0.247835 0.000000 0.000000 -0.000001 
0.281063 96.392479 -4.783866 -0.933817 10.783422 0.665755 0.073739 -0.428295 5.087430 -0.335964 -1.119476 -3.065394 -1.050800 -3.754056 9.184644 1.085237 1.805669 2.721387 -3.101387 -9.124534 -3.110690 1.683712 -13.133266 -10.159654 0.000077 -0.000023 0.000006 -0.007001 -0.005897 -0.042035 0.678200 -3.769914 -10.648879 -0.706006 3.759702 -10.704427 3.339588 -12.607843 8.608098 -54.771370 -62.952095 9.904309 -177.065094 -61.458092 178.569794 0.737991 5.555147 -18.006538 -5.882099 9.861278 0.702591 -10.936857 -0.360577 7.156197 0.000001 8.774812 -0.000002 -15.939497 18.482828 6.213301 -1.844031 2.498503 -2.507278 -10.163589 4.678940 4.621105 -20.975992 -0.000005 0.000001 -21.226250 2.451690 -3.593993 0.000000 -0.000006 -0.000001 -1.362681 2.240796 -0.746323 -21.334892 0.584907 3.008321 -13.821197 -0.000002 0.000002 -23.887131 -0.249078 -0.839480 -61.481453 2.310906 -1.442907 -0.294024 1.679684 0.833256 -14.218192 0.093213 1.300580 -34.212002 -0.287566 0.967171 -20.033176 0.964533 1.212844 0.000001 0.000001 0.000002 -3.440385 0.788233 0.501653 -15.928165 -3.167306 2.999704 -6.338816 -0.000002 0.000003 -18.123411 3.648175 -4.905661 -0.000004 0.000001 -0.000003 -2.014868 15.541463 7.256849 26.294064 30.238134 -44.543217 -179.263916 60.161957 -179.520355 -0.187414 2.017857 -16.781580 2.243539 -5.255034 -3.180155 14.282875 -0.826594 6.952496 -0.000002 -12.690591 -0.000000 16.049829 -17.223593 2.524050 1.665664 -1.955919 -2.878296 4.727793 -4.170585 4.993918 11.020514 0.000005 0.000000 12.109032 -3.735711 -2.866779 0.000001 0.000002 -0.000001 1.291986 -1.928549 -1.498088 14.800109 0.567469 3.865604 14.242554 -1.341734 -6.660648 19.631939 0.143927 -0.648241 49.578659 -0.794288 -6.164375 0.353030 -1.511148 -0.031940 20.222769 3.684308 2.316628 18.787245 0.000004 0.000000 10.751612 -0.479868 1.397905 -0.000000 -0.000000 0.000001 3.273804 0.305948 -0.580110 21.486792 11.830366 2.266131 8.162916 0.000002 0.000001 18.399054 -3.798980 -4.940566 0.000003 0.000000 -0.000001 9.284637 5.133880 -16.702085 -0.127751 -0.179056 31.179483 -8.940744 -6.419550 -14.349069 1.606087 -1.848267 -0.356577 -0.000000 0.000000 0.000002 -5.298449 -24.258932 -23.904762 0.031083 0.057729 25.064510 7.175272 -10.493359 0.397480 -1.421992 1.003444 -0.258249 -0.000000 -0.000000 -0.000001 
0.405707 96.431610 -4.681314 -0.987653 10.628579 0.668982 0.037927 -0.431778 5.003842 -0.357861 -1.104707 -3.085645 -1.083523 -3.751459 9.168936 1.198814 1.732837 2.709449 -3.109446 -9.115452 -3.105301 1.728869 -13.157192 -10.091294 0.000077 -0.000023 0.000006 -0.003548 0.000873 -0.041820 0.680719 -3.761679 -10.643109 -0.702500 3.764179 -10.702648 3.273196 -12.595487 8.591158 -54.614613 -62.883091 9.814207 -176.907684 -61.634293 178.438568 0.790664 5.604350 -18.242947 -5.882102 9.861279 0.702590 -10.936858 -0.360574 7.156199 0.000001 8.774813 -0.000001 -15.923250 18.486643 6.243903 -1.844030 2.498503 -2.507277 -10.163589 4.678940 4.621107 -20.975996 -0.000001 0.000004 -21.226255 2.451696 -3.593997 0.000000 -0.000006 -0.000001 -1.362683 2.240798 -0.746323 -21.334887 0.584908 3.008319 -13.821197 -0.000001 0.000004 -23.887129 -0.249075 -0.839479 -61.499199 2.333531 -1.451232 -0.294026 1.679686 0.833255 -14.218194 0.093214 1.300582 -34.211998 -0.287561 0.967170 -20.033180 0.964537 1.212841 0.000001 0.000002 0.000000 -3.440384 0.788231 0.501656 -15.928167 -3.167304 2.999706 -6.338817 -0.000001 0.000003 -18.123415 3.648178 -4.905658 -0.000004 0.000001 -0.000003 -1.929283 15.622530 7.302461 26.329344 30.343920 -44.650570 -179.280151 60.130211 -179.554428 -0.278085 2.093872 -16.641920 2.243541 -5.255033 -3.180156 14.282877 -0.826594 6.952496 0.000001 -12.690586 -0.000000 16.056683 -17.175364 2.492219 1.665664 -1.955920 -2.878296 4.727793 -4.170581 4.993918 11.020514 0.000002 -0.000000 12.109033 -3.735710 -2.866779 0.000001 0.000001 -0.000001 1.291984 -1.928546 -1.498088 14.800113 0.567469 3.865605 14.242553 -1.341735 -6.660649 19.631939 0.143924 -0.648243 49.571407 -0.783530 -6.133523 0.353029 -1.511149 -0.031939 20.222771 3.684305 2.316628 18.787245 0.000004 -0.000001 10.751611 -0.479868 1.397903 0.000000 -0.000000 0.000000 3.273804 0.305947 -0.580110 21.486792 11.830361 2.266132 8.162916 0.000001 0.000000 18.399054 -3.798979 -4.940566 0.000003 0.000000 -0.000001 9.226818 5.051018 -16.490852 -0.122670 -0.183448 31.075874 -8.863593 -6.385534 -14.519865 1.606033 -1.851981 -0.353135 0.000000 0.000000 0.000002 -5.278047 -24.289423 -23.755486 0.039119 0.066291 24.790115 7.237869 -10.374790 0.529872 -1.421644 0.991159 -0.263423 0.000000 0.000000 -0.000001 
